<svg id="the_logo" data-name="the logo" xmlns="http://www.w3.org/2000/svg" xmlns:xlink="http://www.w3.org/1999/xlink" viewBox="0 0 182.59 182.59"><defs><style>.cls-1{stroke:#fff;}.cls-1,.cls-10,.cls-4,.cls-5,.cls-6,.cls-9{stroke-miterlimit:10;}.cls-2{font-size:21.8px;font-family:Bauhaus93, "Bauhaus 93";}.cls-2,.cls-3{fill:#3f7fe8;}.cls-4,.cls-5,.cls-6,.cls-9{stroke:#231f20;}.cls-10,.cls-4,.cls-5{stroke-width:1.48px;}.cls-4{fill:url(#linear-gradient);}.cls-5{fill:url(#linear-gradient-2);}.cls-6{fill:#f1e09d;}.cls-6,.cls-9{stroke-width:1.11px;}.cls-7{fill:#000504;}.cls-8{fill:#0a0c0e;}.cls-9{fill:url(#linear-gradient-3);}.cls-10{fill:none;stroke:#f1e09d;}.cls-11{fill:url(#linear-gradient-4);}.cls-12{fill:#231f20;}</style><linearGradient id="linear-gradient" x1="100" y1="166.38" x2="100" y2="45.84" gradientUnits="userSpaceOnUse"><stop offset="0" stop-color="#79543d"/><stop offset="0.25" stop-color="#231f20"/><stop offset="0.48" stop-color="#231f20"/><stop offset="0.54" stop-color="#302724"/><stop offset="0.74" stop-color="#583f32"/><stop offset="0.9" stop-color="#704e3a"/><stop offset="1" stop-color="#79543d"/></linearGradient><linearGradient id="linear-gradient-2" x1="64.29" y1="73.16" x2="137" y2="73.16" gradientUnits="userSpaceOnUse"><stop offset="0" stop-color="#231f20"/><stop offset="0.02" stop-color="#2b2627"/><stop offset="0.09" stop-color="#484241"/><stop offset="0.16" stop-color="#5c5553"/><stop offset="0.23" stop-color="#69615e"/><stop offset="0.3" stop-color="#6d6562"/><stop offset="0.7" stop-color="#6d6562"/><stop offset="0.77" stop-color="#69615e"/><stop offset="0.84" stop-color="#5c5553"/><stop offset="0.91" stop-color="#484241"/><stop offset="0.98" stop-color="#2b2627"/><stop offset="1" stop-color="#231f20"/></linearGradient><linearGradient id="linear-gradient-3" x1="93.87" y1="83.28" x2="105.37" y2="83.28" gradientUnits="userSpaceOnUse"><stop offset="0" stop-color="#3f3415"/><stop offset="0.5" stop-color="#dacd98"/><stop offset="1"/></linearGradient><linearGradient id="linear-gradient-4" x1="44.23" y1="112.77" x2="154.35" y2="112.77" gradientUnits="userSpaceOnUse"><stop offset="0" stop-color="#3f7fe8"/><stop offset="0.09" stop-color="#3e83e8"/><stop offset="0.19" stop-color="#3b90e7"/><stop offset="0.29" stop-color="#37a4e6"/><stop offset="0.39" stop-color="#30c1e4"/><stop offset="0.49" stop-color="#28e6e1"/><stop offset="0.5" stop-color="#27e9e1"/><stop offset="0.51" stop-color="#28e6e1"/><stop offset="0.61" stop-color="#30c1e4"/><stop offset="0.71" stop-color="#37a4e6"/><stop offset="0.81" stop-color="#3b90e7"/><stop offset="0.91" stop-color="#3e83e8"/><stop offset="1" stop-color="#3f7fe8"/></linearGradient></defs><circle id="background_1st" data-name="background 1st" class="cls-1" cx="91.3" cy="91.3" r="90.8"/><text id="path_text_1st" data-name="path text 1st" class="cls-2" transform="matrix(0.07, -1, 1, 0.07, 19.54, 91.56)">T</text><text class="cls-2" transform="matrix(0.24, -0.97, 0.97, 0.24, 20.19, 80.91)">H</text><text class="cls-2" transform="translate(23.31 68.37) rotate(-67.14)">E</text><text class="cls-2" transform="translate(27.35 59.09) rotate(-61.03)"> </text><text class="cls-2" transform="matrix(0.61, -0.8, 0.8, 0.61, 29.38, 54.51)">O</text><text class="cls-2" transform="translate(39.02 42.05) rotate(-41.61)">N</text><text class="cls-2" transform="matrix(0.83, -0.56, 0.56, 0.83, 48.36, 33.96)">L</text><text class="cls-2" transform="translate(54.14 30.05) rotate(-28.4)">I</text><text class="cls-2" transform="translate(60 26.63) rotate(-20.71)">N</text><text class="cls-2" transform="matrix(0.98, -0.2, 0.2, 0.98, 71.52, 22.33)">E</text><text class="cls-2" transform="translate(81.44 20.38) rotate(-5.66)"> </text><text class="cls-2" transform="translate(86.5 19.83) rotate(-0.93)">S</text><text class="cls-2" transform="matrix(0.99, 0.12, -0.12, 0.99, 95.11, 19.67)">E</text><text class="cls-2" transform="matrix(0.95, 0.3, -0.3, 0.95, 104.99, 20.59)">C</text><text class="cls-2" transform="translate(119.96 25.22) rotate(30.05)">O</text><text class="cls-2" transform="translate(133.54 33.21) rotate(41.18)">N</text><text class="cls-2" transform="translate(142.87 41.09) rotate(52.1)">D</text><text class="cls-2" transform="matrix(0.5, 0.87, -0.87, 0.5, 152.08, 53.49)">-</text><text class="cls-2" transform="translate(154.57 57.22) rotate(67.05)">H</text><text class="cls-2" transform="matrix(0.22, 0.98, -0.98, 0.22, 159.62, 69.07)">A</text><text class="cls-2" transform="translate(162.39 81.06) rotate(86.99)">N</text><text class="cls-2" transform="translate(163.25 93.26) rotate(97.85)">D</text><text class="cls-2" transform="translate(160.8 108.5) rotate(106.05)"> </text><text class="cls-2" transform="translate(159.58 113.4) rotate(112.44)">T</text><text class="cls-2" transform="translate(155.61 123.33) rotate(121.74)">R</text><text class="cls-2" transform="translate(149.1 133.93) rotate(131.58)">A</text><text class="cls-2" transform="translate(140.96 143.18) rotate(141.34)">N</text><text class="cls-2" transform="matrix(-0.86, 0.51, -0.51, -0.86, 131.26, 150.81)">S</text><text class="cls-2" transform="matrix(-0.93, 0.37, -0.37, -0.93, 123.99, 155.27)">A</text><text class="cls-2" transform="translate(112.7 160.07) rotate(169.31)">C</text><text class="cls-2" transform="translate(97.17 162.74) rotate(179.07)">T</text><text class="cls-2" transform="translate(86.42 162.76) rotate(-173.27)">I</text><text class="cls-2" transform="translate(79.7 162.37) rotate(-164.21)">O</text><text class="cls-2" transform="translate(64.57 157.98) rotate(-152.99)">N</text><text class="cls-2" transform="translate(53.6 152.17) rotate(-146)"> </text><text class="cls-2" transform="matrix(-0.77, -0.64, 0.64, -0.77, 49.31, 149.4)">S</text><text class="cls-2" transform="translate(42.65 144.04) rotate(-132.84)">T</text><text class="cls-2" transform="translate(35.21 136.45) rotate(-122.34)">O</text><text class="cls-2" transform="translate(26.87 123.1) rotate(-111.08)">R</text><text class="cls-2" transform="translate(22.43 111.42) rotate(-102.04)">E</text><circle id="background_2nd" data-name="background 2nd" class="cls-3" cx="91.3" cy="91.3" r="66.49"/><g id="mascot"><path id="outline" class="cls-4" d="M83.53,164.43A61.7,61.7,0,0,1,50,143.81c.64-38.53,5.06-46.84,7.39-49.46a19.7,19.7,0,0,0,3.27-4.65A37,37,0,0,0,61.7,85l3.42-21.9s3-18.23,34.25-17.23,36,12.46,37.07,22.3,1.48,21.52,1.48,21.52.08,1.36,2.34,4,7.86,6,9.75,50.11C150,143.81,127.67,174.25,83.53,164.43Z" transform="translate(-8.7 -8.7)"/><g id="face"><path class="cls-5" d="M100.38,91.92a13.28,13.28,0,0,0,5-1.64c3.24-1.61,6.09-3.32,16-1.81,7.94,1.21,16-15.43,15.56-14.66-1-18-6.91-19.4-6.91-19.4S124.94,60.9,118,61.35s-9.9,4.36-9.9,4.36a6.49,6.49,0,0,1-2.69.83,5.84,5.84,0,0,0-4.19,1.39c-1.05,1.16-1,1.31-1.56,1.31s-.5-.15-1.55-1.31a5.86,5.86,0,0,0-4.2-1.39,6.42,6.42,0,0,1-2.68-.83s-2.92-3.91-9.9-4.36a14.86,14.86,0,0,1-10.6-5.52s-7.43.05-6.27,20.44c0,0,3.41,13.51,13.41,12.2s12.81.2,16,1.81a13.29,13.29,0,0,0,5,1.64" transform="translate(-8.7 -8.7)"/></g><g id="eyes"><path class="cls-6" d="M81.27,75.05a5.28,5.28,0,0,0,5.27-.68c2.79-2,3.2-2.48,3.43-2.94s0-1.24-1.47-2.63-4.18-3.17-6.07-3.09-2.49-.11-4,1.28a7.41,7.41,0,0,0,.2,5.06A5.54,5.54,0,0,0,81.27,75.05Z" transform="translate(-8.7 -8.7)"/><path class="cls-6" d="M118.35,75.05a5.28,5.28,0,0,1-5.27-.68c-2.79-2-3.2-2.48-3.43-2.94s0-1.24,1.47-2.63,4.18-3.17,6.07-3.09,2.49-.11,4,1.28a7.41,7.41,0,0,1-.2,5.06A5.54,5.54,0,0,1,118.35,75.05Z" transform="translate(-8.7 -8.7)"/><circle class="cls-7" cx="75.17" cy="60.77" r="2.94"/><circle class="cls-8" cx="106.87" cy="60.77" r="2.94"/></g><path id="beak" class="cls-9" d="M99.62,73.81s-1.93,5.46-4,6.93S93.7,83.41,94.26,84s2.68,1.54,3.2,4a19.71,19.71,0,0,0,1.7,4.56s.27.6.93,0a19.42,19.42,0,0,0,1.69-4.56c.53-2.41,2.64-3.39,3.2-4s.8-1.77-1.31-3.24-4-6.93-4-6.93" transform="translate(-8.7 -8.7)"/></g><g id="background_2nd_extra_outline" data-name="background 2nd extra outline"><circle class="cls-10" cx="91.3" cy="91.3" r="66.49"/></g><g id="owlet"><g id="background"><path class="cls-11" d="M44.23,90.33s55.85,16,110.09-1.15v38.35c1.39-1.1-44.81,20.43-110.09,0Z" transform="translate(-8.7 -8.7)"/></g><g id="text"><path class="cls-12" d="M52.05,96.82a11.83,11.83,0,0,1,6.33,4.53,16.37,16.37,0,0,1,2.49,5.56,15.78,15.78,0,0,1,.35,6.11,11.55,11.55,0,0,1-3.74,7.1A10.63,10.63,0,0,1,51,122.76a12.62,12.62,0,0,1-4.54-.5,13.36,13.36,0,0,1-5.22-3,13.13,13.13,0,0,1-3.78-6.39,14.44,14.44,0,0,1,0-7.27,12.8,12.8,0,0,1,3.93-6.68,10.46,10.46,0,0,1,5.88-2.56A11.82,11.82,0,0,1,52.05,96.82Zm-2.5,4.72a2.16,2.16,0,0,0-2.33.71,4.38,4.38,0,0,0-1.11,2.19,18.21,18.21,0,0,0-.29,4.92,23.21,23.21,0,0,0,.86,5.31,5,5,0,0,0,1,1.78,3,3,0,0,0,1.41,1,2.23,2.23,0,0,0,2.2-.46,4.14,4.14,0,0,0,1.26-2.5,20.68,20.68,0,0,0,.25-4.89,20.18,20.18,0,0,0-.76-4.76,6.6,6.6,0,0,0-1-2.13A3.1,3.1,0,0,0,49.55,101.54Z" transform="translate(-8.7 -8.7)"/><path class="cls-12" d="M76.38,109.29c-.14-.54-.2-.81-.34-1.35a3,3,0,0,0-.9-1.64,2.18,2.18,0,0,1-.94-1.93c.17-1.57,2.21-2,6.14-1.56a15.25,15.25,0,0,1,4.45,1,1.93,1.93,0,0,1,.8.72,1.67,1.67,0,0,1,.26,1,1.33,1.33,0,0,1-.18.69,7.73,7.73,0,0,1-.88.87,1.16,1.16,0,0,0-.44.78,7.18,7.18,0,0,0,.47,2.2c.31.93.46,1.4.78,2.33a14.47,14.47,0,0,0,.78,2,.75.75,0,0,0,.58.46.72.72,0,0,0,.66-.43,10.89,10.89,0,0,0,.77-1.84c.35-1,.53-1.53.87-2.54a7.09,7.09,0,0,0,.39-1.65,1,1,0,0,0-.62-1,1.85,1.85,0,0,1-1.23-1.87,1.62,1.62,0,0,1,1.08-1.52,8.51,8.51,0,0,1,3.32-.3,5.66,5.66,0,0,1,2.31.5,2,2,0,0,1,.9,2.73,4.69,4.69,0,0,1-.87,1,3.47,3.47,0,0,0-.67.89,19.34,19.34,0,0,0-.75,2c-1.2,3.4-1.82,5.1-3.09,8.48-1.58,3.93-2.59,6.25-2.92,7a16.57,16.57,0,0,1-1,2,2.42,2.42,0,0,1-.88.87,2.36,2.36,0,0,1-1.24.16,2.59,2.59,0,0,1-1.61-.63,3.61,3.61,0,0,1-.94-1.69c-1.1-3.6-1.63-5.41-2.64-9a5.33,5.33,0,0,0-.31-.95.43.43,0,0,0-.35-.23c-.22,0-.43.1-.62.38a24.5,24.5,0,0,0-1.14,2.26c-1.12,2.37-1.68,3.55-2.84,5.91a5.84,5.84,0,0,1-1.45,2,2.45,2.45,0,0,1-1.83.26,2.54,2.54,0,0,1-1.62-.83,5.21,5.21,0,0,1-.89-2.14c-1.63-7.34-2.37-11-3.67-18.38a8.61,8.61,0,0,0-.31-1.36,3.85,3.85,0,0,0-.74-.81,1.88,1.88,0,0,1-.54-1.78c.26-1.72,2.16-2.14,5.72-1.45a13.67,13.67,0,0,1,3.91,1.18,1.89,1.89,0,0,1,1,2,1.93,1.93,0,0,1-.13.6,4.5,4.5,0,0,1-.54.79,1.67,1.67,0,0,0-.28.83,14.88,14.88,0,0,0,.63,4l.47,1.87a11.15,11.15,0,0,0,.41,1.41.44.44,0,0,0,.37.29c.42.07.91-.55,1.48-1.85l.85-2a1,1,0,0,0,.11-.34A1.24,1.24,0,0,0,76.38,109.29Z" transform="translate(-8.7 -8.7)"/><path class="cls-12" d="M106.22,112.29l.22,8.5a9.52,9.52,0,0,0,.54,3.69,2.37,2.37,0,0,0,2.36.87,4.5,4.5,0,0,0,3-1.11,5.11,5.11,0,0,0,1.39-3c.12-.81.47-1.25,1-1.3a1.59,1.59,0,0,1,1.47.75,4.21,4.21,0,0,1,.71,2.23,9.79,9.79,0,0,1-1.24,5,4.44,4.44,0,0,1-.8,1.21,1.42,1.42,0,0,1-.89.38c-1.52-.08-2.28-.13-3.8-.24-4.75.28-7.14.34-11.9.3a3.19,3.19,0,0,1-1.64-.32A1.38,1.38,0,0,1,96,128a1,1,0,0,1,.24-.76,4.34,4.34,0,0,1,1.11-.7,2.26,2.26,0,0,0,1.23-1.39,23.54,23.54,0,0,0,.23-4.43c0-1.14,0-2.78-.06-4.91s-.08-3.6-.08-4.64a7.12,7.12,0,0,0-.19-2,1.31,1.31,0,0,0-.82-.79,5.12,5.12,0,0,1-1.31-.71,1.42,1.42,0,0,1-.48-1.07c0-.9.66-1.56,1.9-2a13.34,13.34,0,0,1,4.26-.62,22.16,22.16,0,0,1,4.48.25c1.27.27,2,.91,2,1.91a1.37,1.37,0,0,1-.22.92,4.86,4.86,0,0,1-1.24.86,1.48,1.48,0,0,0-.72,1.1A20.71,20.71,0,0,0,106.22,112.29Z" transform="translate(-8.7 -8.7)"/><path class="cls-12" d="M119.26,103.16c3.16-.38,4.74-.61,7.89-1.14a29.85,29.85,0,0,0,3.46-.74,10,10,0,0,0,2.07-.9,1.88,1.88,0,0,1,.48-.22,1.64,1.64,0,0,1,1.55.73,7.19,7.19,0,0,1,1.61,3.79,3.66,3.66,0,0,1-.15,2,1.46,1.46,0,0,1-1.08.93,1.18,1.18,0,0,1-.85-.07,4.35,4.35,0,0,1-.92-1,3.34,3.34,0,0,0-2-1.3,11.06,11.06,0,0,0-3.49.21c-1.19.21-1.89.57-2.1,1.11a3.08,3.08,0,0,0-.13,1.12c0,.46.13,1.62.33,3.49.07.73.23,1.17.46,1.32a3.17,3.17,0,0,0,1.71,0,1.37,1.37,0,0,0,.93-.49,2,2,0,0,0,.25-1.21,9.24,9.24,0,0,1,.06-1.5,1.76,1.76,0,0,1,.35-.76,1.16,1.16,0,0,1,.73-.47,1.23,1.23,0,0,1,1.19.51,5.39,5.39,0,0,1,.81,1.76,16.75,16.75,0,0,1,.6,2.77,12.46,12.46,0,0,1-.18,4.89,1.57,1.57,0,0,1-1.22,1.26.82.82,0,0,1-.81-.18,3.37,3.37,0,0,1-.49-1.27A1.91,1.91,0,0,0,128,116.1a1.08,1.08,0,0,0-.94.68,4.92,4.92,0,0,0-.06,2c.06.58.17,1.32.34,2.22a13.89,13.89,0,0,0,.41,1.77,1,1,0,0,0,.91.64,8.65,8.65,0,0,0,2.33-.18,8.18,8.18,0,0,0,3.67-1.41,5.51,5.51,0,0,0,1.7-3,5.32,5.32,0,0,1,.62-1.6,1.47,1.47,0,0,1,.9-.57,1.28,1.28,0,0,1,1.23.41,2.83,2.83,0,0,1,.71,1.57,9.8,9.8,0,0,1-.1,2.85,14.73,14.73,0,0,1-.82,3.19,4,4,0,0,1-.52,1,1,1,0,0,1-.61.35,4.35,4.35,0,0,1-.94.08,21.46,21.46,0,0,0-2.92.3c-5.73,1.09-8.6,1.52-14.36,2.15a2,2,0,0,1-1.37-.27,1.44,1.44,0,0,1-.55-1.13,1.13,1.13,0,0,1,.15-.79,3.2,3.2,0,0,1,.88-.71,2,2,0,0,0,.7-.67,2.68,2.68,0,0,0,.3-1.07,39.79,39.79,0,0,0,0-7.58c-.37-4.74-.86-7.71-1.45-8.9a1.32,1.32,0,0,0-.38-.48,3,3,0,0,0-.81-.26,1.29,1.29,0,0,1-1-1.32,2,2,0,0,1,.23-1.08,1.44,1.44,0,0,1,.73-.69A11,11,0,0,1,119.26,103.16Z" transform="translate(-8.7 -8.7)"/><path class="cls-12" d="M144.23,98.23c3.19-.88,4.78-1.37,8-2.41a9.09,9.09,0,0,0,2.23-1.19,3.1,3.1,0,0,1,.76-.42c.8-.28,1.76.15,2.87,1.28a8.56,8.56,0,0,1,2.26,4,3.18,3.18,0,0,1-.25,2.56,2.68,2.68,0,0,1-1.36,1.07,2,2,0,0,1-1.55,0,4.79,4.79,0,0,1-1.6-1.32,6.85,6.85,0,0,0-1.13-1.18.86.86,0,0,0-.78-.1,1,1,0,0,0-.69.82,5.13,5.13,0,0,0,.16,1.91c.88,4,1.32,6,2.19,10a6.1,6.1,0,0,0,.79,2.15,1.86,1.86,0,0,0,1.34.7,3.59,3.59,0,0,1,1.38.37,1.41,1.41,0,0,1,.55.9,2.41,2.41,0,0,1-1.17,2.46,15.22,15.22,0,0,1-4.84,2.21,17.91,17.91,0,0,1-6.28,1c-1.19-.11-1.87-.64-2-1.55a1.47,1.47,0,0,1,.39-1.32,13.11,13.11,0,0,1,1.09-.74,1.56,1.56,0,0,0,.73-1,8.69,8.69,0,0,0,0-2.26c-.09-1-.29-2.51-.61-4.63s-.62-4-.91-5.5a8.32,8.32,0,0,0-.65-2.25c-.23-.42-.5-.59-.83-.5s-.74.56-1,1.33a11.13,11.13,0,0,1-1.29,2.89,2.66,2.66,0,0,1-1.44,1.1,1.59,1.59,0,0,1-1.52-.4,2.88,2.88,0,0,1-.85-1.76,8.69,8.69,0,0,1,.05-2.58,12.12,12.12,0,0,1,.75-2.78c.58-1.42,1.23-2.23,2-2.42a3,3,0,0,1,.71-.07,12.43,12.43,0,0,0,1.39-.08A9,9,0,0,0,144.23,98.23Z" transform="translate(-8.7 -8.7)"/></g></g></svg>